Coordinates
version=1
nRows=14
nColumns=32
inDegrees=yes

Units are S.I. units (second, meters, Newtons, ...)
If the header above contains a line with 'inDegrees', this indicates whether rotational values are in degrees (yes) or radians (no).

endheader
time	pelvis_tilt	pelvis_list	pelvis_rotation	pelvis_tx	pelvis_ty	pelvis_tz	hip_flexion_r	hip_adduction_r	hip_rotation_r	knee_angle_r	ankle_angle_r	subtalar_angle_r	mtp_angle_r	hip_flexion_l	hip_adduction_l	hip_rotation_l	knee_angle_l	ankle_angle_l	subtalar_angle_l	mtp_angle_l	lumbar_extension	lumbar_bending	lumbar_rotation	arm_flex_r	arm_add_r	arm_rot_r	elbow_flex_r	arm_flex_l	arm_add_l	arm_rot_l	elbow_flex_l
      6.20000000	     -0.47807232	      2.17438288	     90.00000018	      0.02641599	      0.98794252	      0.38942012	     16.12321742	      4.81931507	     -2.39969284	    -23.95931788	      3.24556294	    -11.14843916	      0.00000000	      9.92090684	     -3.35648509	    -13.59114270	    -48.53164168	     10.89493410	     -0.69535503	      0.00000000	    -11.14719968	      0.29867192	      2.05254696	      0.00000000	      0.00000000	      0.00000000	      0.00000000	      0.00000000	      0.00000000	      0.00000000	      0.00000000
      6.21000000	     -0.55770329	      2.01108169	     90.00000018	      0.02734557	      0.98953123	      0.38294062	     15.47249427	      4.76351119	     -2.51103035	    -23.20537600	      3.22504355	    -11.05201776	      0.00000000	     10.67535179	     -3.34607708	    -13.55367799	    -48.40345402	     11.17787629	     -0.43675820	      0.00000000	    -10.94887931	      0.15620683	      2.24986614	      0.00000000	      0.00000000	      0.00000000	      0.00000000	      0.00000000	      0.00000000	      0.00000000	      0.00000000
      6.22000000	     -0.38161034	      1.84829207	     90.00000018	      0.02866864	      0.99079132	      0.37664893	     14.81281719	      5.02383339	     -2.59231869	    -22.41647347	      3.23462330	    -10.69002593	      0.00000000	     11.52194429	     -3.72767133	    -13.58970958	    -48.23378121	     12.02123326	      0.62647260	      0.00000000	    -10.77192676	      0.26084486	      2.46897774	      0.00000000	      0.00000000	      0.00000000	      0.00000000	      0.00000000	      0.00000000	      0.00000000	      0.00000000
      6.23000000	     -0.45437477	      1.69615225	     90.00000018	      0.02979309	      0.99215204	      0.37058572	     14.16767427	      4.99504998	     -2.79704893	    -21.63621994	      3.25535284	    -10.64053311	      0.00000000	     12.30179717	     -3.70374254	    -13.49256421	    -47.62799967	     12.11526356	      0.70910304	      0.00000000	    -10.63115688	      0.07676015	      2.69292252	      0.00000000	      0.00000000	      0.00000000	      0.00000000	      0.00000000	      0.00000000	      0.00000000	      0.00000000
      6.24000000	     -0.44929615	      1.49839650	     90.00000018	      0.03081957	      0.99346509	      0.36440998	     13.54029675	      5.05638385	     -2.91763924	    -20.82202794	      3.26113922	    -10.52630535	      0.00000000	     13.01299577	     -3.70396218	    -13.31891787	    -46.60016841	     12.22389985	      0.79757427	      0.00000000	    -10.42216077	      0.02100025	      2.93989543	      0.00000000	      0.00000000	      0.00000000	      0.00000000	      0.00000000	      0.00000000	      0.00000000	      0.00000000
      6.25000000	     -0.41685861	      1.32526346	     90.00000018	      0.03184608	      0.99465237	      0.35841606	     12.92325765	      5.15824894	     -2.97297567	    -20.05846910	      3.24671005	    -10.38380427	      0.00000000	     13.71784614	     -3.73439280	    -13.10424040	    -45.43928797	     12.30133784	      0.85517588	      0.00000000	    -10.26897689	     -0.00823616	      3.18861955	      0.00000000	      0.00000000	      0.00000000	      0.00000000	      0.00000000	      0.00000000	      0.00000000	      0.00000000
      6.26000000	     -0.37295968	      1.17602512	     90.00000018	      0.03249025	      0.99576463	      0.35253813	     12.25240534	      5.24830039	     -2.93710205	    -19.20870512	      3.19187586	    -10.19504388	      0.00000000	     14.40155085	     -3.73293128	    -12.85380800	    -44.15209376	     12.35207299	      0.86494545	      0.00000000	    -10.17780813	      0.06185686	      3.46050975	      0.00000000	      0.00000000	      0.00000000	      0.00000000	      0.00000000	      0.00000000	      0.00000000	      0.00000000
      6.27000000	     -0.27986680	      1.06178147	     90.00000018	      0.03330495	      0.99683942	      0.34665051	     11.59707628	      5.41427735	     -2.87004471	    -18.47681114	      3.16342210	    -10.05630716	      0.00000000	     15.03659159	     -3.80145204	    -12.54625660	    -42.76290176	     12.33500025	      0.83014894	      0.00000000	    -10.11563774	      0.12642624	      3.72295981	      0.00000000	      0.00000000	      0.00000000	      0.00000000	      0.00000000	      0.00000000	      0.00000000	      0.00000000
      6.28000000	     -0.17364520	      1.40482597	     90.00000018	      0.03430924	      0.99862915	      0.34060054	     10.29827321	      5.63374390	     -2.49713776	    -17.49082774	      2.84059087	     -9.85294091	      0.00000000	     15.09354748	     -3.89239546	    -12.26625016	    -41.17033211	     12.17500873	      0.14998826	      0.00000000	    -10.58015148	      0.15071950	      3.99068181	      0.00000000	      0.00000000	      0.00000000	      0.00000000	      0.00000000	      0.00000000	      0.00000000	      0.00000000
      6.29000000	     -0.07582290	      1.32208009	     90.00000018	      0.03497002	      0.99936133	      0.33478639	      9.62858164	      5.79376002	     -2.51028390	    -16.76528950	      2.96364172	     -9.92714698	      0.00000000	     15.71860894	     -3.95878482	    -11.85340320	    -39.73067955	     11.96722045	      0.12451170	      0.00000000	    -10.56151264	      0.23520558	      4.25262238	      0.00000000	      0.00000000	      0.00000000	      0.00000000	      0.00000000	      0.00000000	      0.00000000	      0.00000000
      6.30000000	      0.04090691	      1.28555026	     90.00000018	      0.03560813	      1.00001718	      0.32897909	      8.91058490	      5.98609061	     -2.31114070	    -16.04722966	      2.95521064	     -9.97124550	      0.00000000	     16.25835724	     -4.05892272	    -11.51927276	    -38.22082556	     11.73286111	     -0.07345795	      0.00000000	    -10.58260489	      0.32116788	      4.50098378	      0.00000000	      0.00000000	      0.00000000	      0.00000000	      0.00000000	      0.00000000	      0.00000000	      0.00000000
      6.31000000	      0.11298975	      1.64959690	     90.00000018	      0.03619590	      1.00137571	      0.32324121	      7.75053334	      6.14123887	     -1.92987747	    -15.31533078	      2.60928707	    -10.31108628	      0.00000000	     16.27640022	     -4.08155117	    -11.23883395	    -36.47020543	     11.20860439	     -1.04317875	      0.00000000	    -11.11467250	      0.37549862	      4.69564843	      0.00000000	      0.00000000	      0.00000000	      0.00000000	      0.00000000	      0.00000000	      0.00000000	      0.00000000
      6.32000000	      0.26506654	      1.55970610	     90.00000018	      0.03653469	      1.00151501	      0.31769614	      7.23801555	      6.33279722	     -2.04657976	    -14.82379750	      2.75996502	    -10.38165580	      0.00000000	     16.93837618	     -4.21516885	    -10.90675707	    -35.03496885	     11.02451309	     -1.01218309	      0.00000000	    -11.11525087	      0.55800622	      4.89559381	      0.00000000	      0.00000000	      0.00000000	      0.00000000	      0.00000000	      0.00000000	      0.00000000	      0.00000000
      6.33000000	      0.44391509	      1.49950206	     90.00000018	      0.03728518	      1.00146418	      0.31225696	      6.78908262	      6.58963428	     -2.06922308	    -14.53201787	      2.86628940	    -10.38813322	      0.00000000	     17.59246433	     -4.42552496	    -10.63594957	    -33.65303735	     10.80101630	     -1.00069762	      0.00000000	    -11.13317694	      0.65744218	      5.04628845	      0.00000000	      0.00000000	      0.00000000	      0.00000000	      0.00000000	      0.00000000	      0.00000000	      0.00000000
